<svg width="20" height="16" viewBox="0 0 20 16" fill="none" xmlns="http://www.w3.org/2000/svg">
<g clip-path="url(#clip0)">
<path d="M19.1978 8.14968C19.1978 7.49416 19.1325 7.01581 18.9911 6.51975H9.79481V9.47841H15.1928C15.084 10.2137 14.4963 11.321 13.1903 12.065L13.172 12.1641L16.0797 13.9976L16.2811 14.0139C18.1312 12.6231 19.1978 10.5769 19.1978 8.14968Z" fill="#4285F4"/>
<path d="M9.79481 15.945C12.4394 15.945 14.6595 15.2363 16.2811 14.0139L13.1903 12.065C12.3632 12.5345 11.2531 12.8623 9.79481 12.8623C7.20464 12.8623 5.00627 11.4716 4.22261 9.54932L4.10774 9.55726L1.08429 11.4618L1.04475 11.5513C2.65544 14.1556 5.96392 15.945 9.79481 15.945Z" fill="#34A853"/>
<path d="M4.22261 9.54932C4.01584 9.05325 3.89617 8.52171 3.89617 7.97252C3.89617 7.42327 4.01583 6.89179 4.21173 6.39573L4.20625 6.29008L1.14492 4.35493L1.04475 4.39371C0.380913 5.47445 0 6.68806 0 7.97252C0 9.25698 0.380913 10.4705 1.04475 11.5513L4.22261 9.54932Z" fill="#FBBC05"/>
<path d="M9.79481 3.08269C11.634 3.08269 12.8747 3.72934 13.5821 4.26974L16.3464 2.07285C14.6487 0.788397 12.4394 0 9.79481 0C5.96392 0 2.65544 1.78937 1.04475 4.39371L4.21173 6.39573C5.00627 4.47347 7.20464 3.08269 9.79481 3.08269Z" fill="#EB4335"/>
</g>
<defs>
<clipPath id="clip0">
<rect width="19.6571" height="16" fill="white"/>
</clipPath>
</defs>
</svg>
