<svg width="82" height="66" viewBox="0 0 82 66" fill="none" xmlns="http://www.w3.org/2000/svg">
<g filter="url(#filter0_d)">
<path d="M24 5.29156L61.9462 41.9333" stroke="#0079F9" stroke-width="3" stroke-linecap="round"/>
<path d="M32.8575 2L71.8042 40.2887" stroke="#0079F9" stroke-width="3" stroke-linecap="round"/>
</g>
<path d="M3.76492 44.7928L2.14523 44.8243L1.65039 30.833L4.48986 30.7779L8.09179 43.2289L7.64927 30.7167L9.26897 30.6853L9.7638 44.6765L6.90433 44.732L3.3224 32.2807L3.76492 44.7928ZM16.6433 44.5432C15.4702 44.5659 14.6016 44.3361 14.0376 43.8536C13.4731 43.3579 13.1709 42.5437 13.1308 41.4111L13.0036 37.8133C12.9631 36.6674 13.1807 35.8431 13.6565 35.3405C14.1323 34.8379 14.9434 34.5755 16.0899 34.5533L17.0297 34.5351C17.9762 34.5167 18.6988 34.7694 19.1976 35.2931C19.7092 35.8032 19.9829 36.5646 20.0187 37.5773L20.1106 40.1757L14.7916 40.2788L14.8446 41.7779C14.8593 42.1909 14.9972 42.5083 15.2585 42.7299C15.5198 42.9515 15.8971 43.0575 16.3903 43.048L19.5697 42.9863L19.6227 44.4854L16.6433 44.5432ZM18.3449 37.2097C18.3327 36.8633 18.2092 36.579 17.9746 36.3569C17.7399 36.1347 17.4493 36.027 17.1027 36.0337L15.9429 36.0562C15.463 36.0655 15.1271 36.1854 14.9351 36.4158C14.756 36.6326 14.674 36.9542 14.6891 37.3806L14.7386 38.7797L18.3979 38.7088L18.3449 37.2097ZM30.6414 44.2718L24.2826 44.395L24.2261 42.796L28.6606 35.7896L24.3814 35.8726L24.3291 34.3935L30.488 34.2741L30.5509 36.053L26.15 42.8788L30.5891 42.7927L30.6414 44.2718ZM39.1006 44.1078C38.4208 44.1209 37.8931 43.9112 37.5176 43.4784C37.1421 43.0457 36.9417 42.4695 36.9162 41.75L36.7006 35.6538L34.801 35.6906L34.7479 34.1915L36.6476 34.1547L36.5628 31.7562L38.2624 31.7233L38.3473 34.1218L41.2667 34.0652L41.3197 35.5642L38.4003 35.6208L38.6194 41.8169C38.6298 42.1101 38.7104 42.3152 38.8613 42.4323C39.0122 42.5494 39.2409 42.6049 39.5475 42.599L41.5672 42.5598L41.6202 44.0589L39.1006 44.1078Z" fill="black"/>
<path d="M32.8885 63.3597C31.7289 63.3891 30.8224 63.1321 30.1691 62.5887C29.5284 62.0316 29.1809 61.187 29.1265 60.055L28.7811 52.8632C28.7267 51.7312 28.9926 50.8777 29.5789 50.3028C30.1778 49.7142 31.0571 49.4052 32.2168 49.3758L35.0558 49.3037L35.1288 50.822L32.0898 50.8991C31.5966 50.9116 31.2038 51.0683 30.9113 51.3691C30.6188 51.6698 30.4824 52.0267 30.5023 52.4395L30.8842 60.3904C30.9041 60.8032 31.0743 61.1523 31.3949 61.4375C31.7156 61.7227 32.1225 61.859 32.6157 61.8465L35.6547 61.7694L35.7276 63.2876L32.8885 63.3597ZM40.6748 49.1611L40.886 53.556C41.273 53.2795 41.7665 53.1337 42.3663 53.1184L43.286 53.0951C44.3656 53.0677 45.1775 53.3004 45.7217 53.7933C46.2792 54.2859 46.5848 55.0915 46.6385 56.2102L46.9648 63.0024L45.2653 63.0455L44.9199 55.8538C44.9007 55.4543 44.7657 55.1443 44.5149 54.924C44.2768 54.69 43.9578 54.5781 43.5579 54.5883L42.2383 54.6218C41.8118 54.6326 41.4973 54.7539 41.2949 54.9857C41.0919 55.2042 40.9898 55.4402 40.9886 55.6936L41.3466 63.145L39.6471 63.1881L38.9754 49.2042L40.6748 49.1611ZM57.0423 62.7465C56.8691 62.7509 56.6732 62.7026 56.4548 62.6015C56.2498 62.5 56.0695 62.3579 55.9139 62.1752C55.6265 62.5825 55.2296 62.7926 54.7231 62.8054L52.9437 62.8506C51.9306 62.8763 51.1813 62.6953 50.6956 62.3076C50.2226 61.9063 49.9624 61.2128 49.915 60.2273L49.8958 59.8278C49.7967 57.7635 50.7201 56.7066 52.6661 56.6572L55.1454 56.5943L55.0974 55.5954C55.0775 55.1826 54.9356 54.8662 54.6714 54.6462C54.4073 54.4262 54.0286 54.3225 53.5355 54.335L50.4365 54.4137L50.3645 52.9154L53.2636 52.8418C54.4232 52.8124 55.2884 53.0438 55.8592 53.536C56.4433 54.0278 56.7623 54.8331 56.816 55.9518L57.0463 60.7463C57.0559 60.9461 57.1366 61.0974 57.2883 61.2002C57.4528 61.2894 57.7149 61.3294 58.0748 61.3202L58.142 62.7186L57.0423 62.7465ZM54.4512 61.3122C54.851 61.3021 55.0998 61.2024 55.1975 61.0133C55.2952 60.8241 55.337 60.583 55.3229 60.29L55.2173 58.0926L52.7181 58.156C52.3716 58.1648 52.0904 58.2853 51.8747 58.5174C51.659 58.7496 51.5595 59.0388 51.5761 59.3851L51.6241 60.3839C51.6407 60.7302 51.7328 60.9812 51.9005 61.137C52.0681 61.2927 52.3252 61.3662 52.6717 61.3574L54.4512 61.3122ZM65.6404 62.5283C64.9606 62.5455 64.4302 62.339 64.0492 61.9086C63.6682 61.4783 63.4604 60.9035 63.4259 60.1843L63.1332 54.0914L61.2338 54.1396L61.1618 52.6413L63.0612 52.5931L62.946 50.1959L64.6455 50.1527L64.7606 52.55L67.6797 52.4759L67.7517 53.9741L64.8326 54.0482L65.1301 60.2411C65.1442 60.5341 65.2274 60.7387 65.3798 60.8548C65.5322 60.9709 65.7616 61.0251 66.0682 61.0173L68.0876 60.9661L68.1595 62.4643L65.6404 62.5283Z" fill="#231F20"/>
<defs>
<filter id="filter0_d" x="9.25281" y="0.49176" width="64.0431" height="51.645" filterUnits="userSpaceOnUse" color-interpolation-filters="sRGB">
<feFlood flood-opacity="0" result="BackgroundImageFix"/>
<feColorMatrix in="SourceAlpha" type="matrix" values="0 0 0 0 0 0 0 0 0 0 0 0 0 0 0 0 0 0 127 0" result="hardAlpha"/>
<feOffset dx="-9" dy="5"/>
<feGaussianBlur stdDeviation="2"/>
<feComposite in2="hardAlpha" operator="out"/>
<feColorMatrix type="matrix" values="0 0 0 0 0.443137 0 0 0 0 0.760784 0 0 0 0 1 0 0 0 0.88 0"/>
<feBlend mode="normal" in2="BackgroundImageFix" result="effect1_dropShadow"/>
<feBlend mode="normal" in="SourceGraphic" in2="effect1_dropShadow" result="shape"/>
</filter>
</defs>
</svg>
